# xmcd
#
# Track frame offsets:
#	150
#	22078
#	36384
#	52232
#	73753
#	89333
#	108742
#	123205
#	143585
#	158938
#	175942
#	202978
#	218640
#	241533
#	258689
#
# Disc length: 3680 seconds
#
# Revision: 1
# Processed by: cddbd v1.5.2PL0 Copyright (c) Steve Scherf et al.
# Submitted via: audiograbber 1.83.01
#
DISCID=db0e5e0f
DTITLE=Juan Pardo - 15 de Coleccion
DYEAR=1980
DGENRE=Latin
TTITLE0=Bravo por la musica
TTITLE1=Un sorbito de champagne
TTITLE2=Mirame de frente
TTITLE3=Mi guitarra
TTITLE4=Hay que ver
TTITLE5=Maria Magdalena
TTITLE6=Conversaciones conmigo mismo
TTITLE7=Señor amor
TTITLE8=Ne me hables
TTITLE9=Anduriña
TTITLE10=Que tienes en la cama
TTITLE11=Cuando te enamores
TTITLE12=Otra vez
TTITLE13=Amar despues de amar
TTITLE14=Que peligro tienes
EXTD=
EXTT0=
EXTT1=
EXTT2=
EXTT3=
EXTT4=
EXTT5=
EXTT6=
EXTT7=
EXTT8=
EXTT9=
EXTT10=
EXTT11=
EXTT12=
EXTT13=
EXTT14=
PLAYORDER=
